<?xml version="1.0" encoding="UTF-8"?>
<svg xmlns="http://www.w3.org/2000/svg" viewBox="0 0 512 512" width="512" height="512">
  <defs>
    <linearGradient id="bg" x1="0%" y1="0%" x2="100%" y2="100%">
      <stop offset="0%" stop-color="#10b981"/>
      <stop offset="60%" stop-color="#059669"/>
      <stop offset="100%" stop-color="#047857"/>
    </linearGradient>
    <linearGradient id="shine" x1="0%" y1="0%" x2="100%" y2="100%">
      <stop offset="0%" stop-color="white" stop-opacity="0.18"/>
      <stop offset="100%" stop-color="white" stop-opacity="0"/>
    </linearGradient>
  </defs>

  <!-- Rounded square background (matches app's rounded-3xl brand mark) -->
  <rect width="512" height="512" rx="112" fill="url(#bg)"/>
  <rect width="512" height="256" rx="112" fill="url(#shine)"/>

  <!--
    Font Awesome 6 Solid — piggy-bank
    Native viewBox 576×512. Scaled to 0.56, centered with visual padding.
    Source: https://fontawesome.com/icons/piggy-bank?f=classic&s=solid (CC BY 4.0)
  -->
  <g transform="translate(96 112) scale(0.56)" fill="white">
    <path d="M400 96l0 .7c-5.3-.4-10.6-.7-16-.7L128 96c-5.4 0-10.7 .2-16 .7l0-.7c0-53 43-96 96-96l96 0c53 0 96 43 96 96zm-6.7 16.3c69.2 14.2 124.8 66.4 143.7 133.8c5-3.2 10.9-5.1 17-5.1c17.7 0 32 14.3 32 32l0 64c0 17.7-14.3 32-32 32c-6.1 0-12-1.9-17-5.1c-17.9 63.8-69.2 114-134 131.1L432 512l-96 0 0-32-160 0 0 32-96 0 0-32c0-5.7 1.1-11.3 3.1-16.3C45.8 457.6 0 398.2 0 332l0-46.4c0-36.5 37.6-63.5 73.1-66.2c12.9 3.7 20 13.7 20 24.2l0 6.4c0 13.3 10.7 24 24 24c17.7 0 32-14.3 32-32c0-29.8-21.8-54.6-50.4-59c28.2-27.4 68.8-53.9 153.4-56c45.7-1.2 91.3 7.7 129.2 24.9zM480 288a16 16 0 1 0 -32 0 16 16 0 1 0 32 0z"/>
  </g>
</svg>
